#!OML:ASF Y:\EmotionMaleHayes\Project 1\Capture day 1\Session 1\Male1.ASF
:FULLY-SPECIFIED
:DEGREES
17
root -35.1417 19.0824 8.19965 -25.9707 56.448 -21.5743
lowerback 18.1113 -0.119148 -11.0233
upperback 4.49075 -2.13621 -2.50853
thorax -4.94297 -0.87915 3.99744
lowerneck -22.6066 8.01986 0.144659
upperneck 17.6601 11.6952 -2.98627
head 9.46683 5.09216 0.645845
rclavicle -1.12512e-013 -3.18055e-015
rhumerus -39.9888 -2.42833 -24.0278
rradius 34.1753
rwrist -19.3939
rhand -11.5345 -35.9681
rfingers 7.12502
rthumb 14.5055 -65.441
lclavicle -1.12512e-013 -3.18055e-015
lhumerus 40.8619 -29.6579 33.3166
lradius 73.5499
lwrist 18.9387
lhand -35.438 -31.327
lfingers 7.12502
lthumb -8.56745 -1.52085
rfemur -30.587 -28.5046 8.44769
rtibia 48.479
rfoot -24.1542 -27.1291
rtoes 26.5728
lfemur 7.64471 17.1521 -8.89413
ltibia 27.4524
lfoot 0.928051 15.0547
ltoes 16.4585
18
root -34.9663 19.1253 8.21252 -26.9104 56.7277 -22.6318
lowerback 17.8765 -0.183714 -10.8084
upperback 4.86644 -2.0963 -2.29836
thorax -4.41508 -0.899235 4.08385
lowerneck -23.447 8.26197 0.934993
upperneck 18.0391 11.9402 -3.59844
head 9.84499 5.15038 0.402389
rclavicle -7.91163e-014 1.27222e-014
rhumerus -39.7968 -2.49432 -22.6217
rradius 34.0838
rwrist -19.5303
rhand -11.0791 -36.0914
rfingers 7.12502
rthumb 14.9443 -65.5322
lclavicle -7.91163e-014 1.27222e-014
lhumerus 42.6752 -29.6844 32.7785
lradius 74.8712
lwrist 20.5241
lhand -35.8239 -31.1549
lfingers 7.12502
lthumb -8.93991 -1.36427
rfemur -30.9468 -28.7427 9.04211
rtibia 48.4377
rfoot -24.2543 -27.0632
rtoes 26.4582
lfemur 7.50868 17.393 -8.14634
ltibia 26.9644
lfoot 0.366856 14.8901
ltoes 15.6799
19
root -34.7917 19.1598 8.22298 -27.804 57.0986 -23.5592
lowerback 18.0377 -0.169523 -10.9104
upperback 4.82797 -2.10325 -1.89678
thorax -4.51959 -0.898719 4.57983
lowerneck -22.7793 8.29555 1.18976
upperneck 17.8134 12.041 -4.22003
head 9.71413 5.16376 0.138451
rclavicle -1.11319e-014 2.22639e-014
rhumerus -39.7865 -1.71812 -20.8939
rradius 34.0692
rwrist -19.7338
rhand -10.7788 -36.1934
rfingers 7.12502
rthumb 15.2335 -65.6126
lclavicle -1.11319e-014 2.22639e-014
lhumerus 43.9897 -30.1834 33.045
lradius 75.5866
lwrist 21.7447
lhand -35.9337 -32.2348
lfingers 7.12502
lthumb -9.0458 -2.44878
rfemur -31.2002 -29.2759 9.3881
rtibia 48.4458
rfoot -23.8117 -26.4981
rtoes 26.8658
lfemur 7.47616 17.2132 -7.68486
ltibia 25.6259
lfoot 0.170655 14.7753
ltoes 14.597
20
root -34.6232 19.1771 8.23529 -28.5264 57.4534 -24.3932
lowerback 18.2578 -0.285968 -11.1891
upperback 4.77739 -2.31861 -1.43123
thorax -4.62176 -0.999014 5.29084
lowerneck -22.6046 8.46565 1.2156
upperneck 17.7698 12.3848 -4.70399
head 9.71712 5.27258 0.0173404
rclavicle 4.37326e-015 2.22639e-014
rhumerus -39.2802 -0.507052 -19.4563
rradius 34.2043
rwrist -20.2979
rhand -10.918 -36.1566
rfingers 7.12502
rthumb 15.0995 -65.5859
lclavicle 4.37326e-015 2.22639e-014
lhumerus 44.6681 -30.1517 33.9387
lradius 76.0764
lwrist 21.8046
lhand -35.7557 -32.8379
lfingers 7.12502
lthumb -8.8741 -3.04454
rfemur -31.5676 -29.6298 9.79952
rtibia 48.3732
rfoot -23.3495 -25.9027
rtoes 27.22
lfemur 7.25839 17.4757 -7.24977
ltibia 24.7008
lfoot -0.901605 14.2245
ltoes 14.7691
21
root -34.4637 19.1799 8.24823 -29.5424 57.8164 -25.5248
lowerback 18.2558 -0.813492 -10.0308
upperback 5.09774 -2.78997 -2.04724
thorax -4.29603 -1.25408 4.06744
lowerneck -23.3365 8.79037 2.01639
upperneck 17.9094 12.4873 -4.38285
head 9.92215 5.38474 0.0542202
rclavicle 5.24792e-014 2.8625e-014
rhumerus -39.317 0.149944 -19.798
rradius 34.4432
rwrist -20.9564
rhand -11.5904 -36.3117
rfingers 7.12502
rthumb 14.4517 -65.7885
lclavicle 5.24792e-014 2.8625e-014
lhumerus 46.0271 -29.8689 32.7098
lradius 76.9724
lwrist 21.5388
lhand -35.5459 -33.0736
lfingers 7.12502
lthumb -8.67164 -3.27176
rfemur -31.7664 -29.7911 10.3348
rtibia 48.0766
rfoot -23.4234 -25.6826
rtoes 26.6281
lfemur 6.85471 17.6711 -6.692
ltibia 23.9786
lfoot -2.09649 13.7335
ltoes 14.895
22
root -34.2841 19.1769 8.25883 -30.1678 58.0059 -25.9417
lowerback 18.5663 -1.12497 -9.62071
upperback 5.01128 -3.18011 -2.28363
thorax -4.54215 -1.43006 3.67897
lowerneck -22.6513 9.12817 2.3702
upperneck 17.9166 12.8069 -4.18627
head 9.82214 5.59702 0.0907976
rclavicle 6.71892e-014 4.77083e-014
rhumerus -38.5616 -0.28911 -18.6972
rradius 33.6691
rwrist -19.5645
rhand -12.0868 -36.3312
rfingers 7.12502
rthumb 13.9734 -65.8416
lclavicle 6.71892e-014 4.77083e-014
lhumerus 46.3799 -30.1393 32.5746
lradius 77.9679
lwrist 21.3832
lhand -35.5226 -33.1755
lfingers 7.12502
lthumb -8.64916 -3.3727
rfemur -31.6799 -29.8394 10.3941
rtibia 47.7679
rfoot -23.5109 -25.3129
rtoes 25.3314
lfemur 6.94337 17.654 -6.5537
ltibia 22.8249
lfoot -3.38403 13.4825
ltoes 14.6959
23
root -34.0965 19.1681 8.26842 -30.4093 58.118 -25.9057
lowerback 18.642 -1.13554 -9.76155
upperback 5.13913 -3.21312 -2.29548
thorax -4.43008 -1.4524 3.75109
lowerneck -22.4333 9.20654 2.70154
upperneck 17.8599 12.8835 -4.49685
head 9.81369 5.6245 -0.0611683
rclavicle -1.15295e-014 4.13472e-014
rhumerus -38.159 -0.226074 -17.5784
rradius 33.6364
rwrist -19.4471
rhand -13.0438 -36.5949
rfingers 7.12502
rthumb 13.051 -66.1666
lclavicle -1.15295e-014 4.13472e-014
lhumerus 47.3815 -30.2977 32.5895
lradius 78.829
lwrist 21.3966
lhand -35.3338 -33.3007
lfingers 7.12502
lthumb -8.46689 -3.49042
rfemur -31.5518 -29.7704 10.2377
rtibia 47.4062
rfoot -23.5427 -24.6188
rtoes 25.3272
lfemur 7.16244 17.7593 -6.63816
ltibia 21.5449
lfoot -4.84959 13.1993
ltoes 14.217
24
root -33.933 19.1455 8.28087 -30.8371 58.5464 -26.3787
lowerback 18.6837 -1.25361 -9.68539
upperback 5.27683 -3.3461 -2.43812
thorax -4.2993 -1.52387 3.58087
lowerneck -22.0307 9.02793 2.35436
upperneck 17.3782 12.578 -3.9265
head 9.4947 5.55392 0.104033
rclavicle -2.74323e-014 3.81667e-014
rhumerus -38.1924 -0.0385949 -16.8663
rradius 33.9352
rwrist -19.8795
rhand -14.2962 -36.8937
rfingers 7.12502
rthumb 11.8435 -66.5387
lclavicle -2.74323e-014 3.81667e-014
lhumerus 48.2183 -30.525 33.0153
lradius 79.8519
lwrist 20.7701
lhand -34.7578 -33.5186
lfingers 7.12502
lthumb -7.91105 -3.6866
rfemur -31.6301 -29.661 10.3374
rtibia 46.9131
rfoot -23.6517 -24.3111
rtoes 25.6284
lfemur 6.71077 17.6167 -6.75775
ltibia 20.5074
lfoot -6.28336 12.8919
ltoes 14.0517
25
root -33.7644 19.1149 8.29269 -31.184 58.9905 -26.5615
lowerback 18.7802 -1.34855 -9.68176
upperback 5.48814 -3.46262 -2.69075
thorax -4.12255 -1.58806 3.33018
lowerneck -22.6152 9.39705 3.77191
upperneck 17.7246 12.7914 -4.56322
head 9.87024 5.64285 -0.252509
rclavicle -4.33351e-014 -3.49861e-014
rhumerus -38.1844 -0.0393689 -16.1949
rradius 34.1035
rwrist -19.9578
rhand -14.6151 -37.2349
rfingers 7.12502
rthumb 11.536 -66.8974
lclavicle -4.33351e-014 -3.49861e-014
lhumerus 49.4825 -30.9633 32.6286
lradius 80.4532
lwrist 21.4887
lhand -34.694 -35.219
lfingers 7.12502
lthumb -7.84941 -5.38468
rfemur -31.476 -29.2212 10.1998
rtibia 46.3666
rfoot -23.6744 -24.3578
rtoes 24.9739
lfemur 6.51868 16.981 -7.19091
ltibia 19.1412
lfoot -7.68507 12.9001
ltoes 14.1431
26
root -33.5948 19.0743 8.30519 -31.2953 59.472 -26.4901
lowerback 18.973 -1.33445 -9.99108
upperback 5.59434 -3.51127 -2.81727
thorax -4.08791 -1.61055 3.38121
lowerneck -22.5694 9.4887 4.19315
upperneck 17.6681 12.8022 -4.66881
head 9.87919 5.66538 -0.352011
rclavicle 8.74653e-015 6.36111e-015
rhumerus -38.2305 -0.155956 -15.1924
rradius 34.3048
rwrist -19.9376
rhand -15.3413 -37.6277
rfingers 7.12502
rthumb 10.8355 -67.3282
lclavicle 8.74653e-015 6.36111e-015
lhumerus 50.4645 -31.4224 32.7568
lradius 81.1136
lwrist 21.5715
lhand -34.3238 -36.0111
lfingers 7.12502
lthumb -7.49212 -6.16381
rfemur -31.3684 -28.9643 9.90183
rtibia 45.8023
rfoot -23.6648 -24.2057
rtoes 24.4552
lfemur 6.31978 16.201 -7.86428
ltibia 17.6558
lfoot -9.32788 13.01
ltoes 13.424
